HIERARCHY
ROOT Hips
{
	OFFSET 0.000000 0.000000 0.000000
	CHANNELS 6 Xposition Yposition Zposition Xrotation Yrotation Zrotation
	JOINT Chest
	{
		OFFSET 0.000000 0.009282 11.569106
		CHANNELS 3 Xrotation Yrotation Zrotation
		JOINT Chest2
		{
			OFFSET 0.000000 -0.016863 9.269641
			CHANNELS 3 Xrotation Yrotation Zrotation
			JOINT Chest3
			{
				OFFSET 0.000000 0.000000 8.374491
				CHANNELS 3 Xrotation Yrotation Zrotation
				JOINT Chest4
				{
					OFFSET 0.000000 0.000000 8.374493
					CHANNELS 3 Xrotation Yrotation Zrotation
					JOINT Neck
					{
						OFFSET 0.000000 -0.000001 12.152554
						CHANNELS 3 Xrotation Yrotation Zrotation
						JOINT Head
						{
							OFFSET 0.000000 -0.040100 7.802319
							CHANNELS 3 Xrotation Yrotation Zrotation
							End Site
							{
								OFFSET 0.000000 -0.020946 14.853096
							}
						}
					}
					JOINT RightCollar
					{
						OFFSET -2.894404 0.000000 6.791374
						CHANNELS 3 Xrotation Yrotation Zrotation
						JOINT RightShoulder
						{
							OFFSET -13.574684 0.000000 0.000000
							CHANNELS 3 Xrotation Yrotation Zrotation
							JOINT RightElbow
							{
								OFFSET -23.923903 0.000000 0.000000
								CHANNELS 3 Xrotation Yrotation Zrotation
								JOINT RightWrist
								{
									OFFSET -19.846718 -0.012765 0.000000
									CHANNELS 3 Xrotation Yrotation Zrotation
									End Site
									{
										OFFSET -14.973145 0.000000 0.000000
									}
								}
							}
						}
					}
					JOINT LeftCollar
					{
						OFFSET 2.894404 0.000000 6.791374
						CHANNELS 3 Xrotation Yrotation Zrotation
						JOINT LeftShoulder
						{
							OFFSET 13.574684 0.000000 0.000000
							CHANNELS 3 Xrotation Yrotation Zrotation
							JOINT LeftElbow
							{
								OFFSET 23.923903 0.000000 0.000000
								CHANNELS 3 Xrotation Yrotation Zrotation
								JOINT LeftWrist
								{
									OFFSET 19.846718 -0.012765 0.000000
									CHANNELS 3 Xrotation Yrotation Zrotation
									End Site
									{
										OFFSET 14.973145 0.000000 0.000000
									}
								}
							}
						}
					}
				}
			}
		}
	}
	JOINT RightHip
	{
		OFFSET -9.469263 -0.004642 0.045487
		CHANNELS 3 Xrotation Yrotation Zrotation
		JOINT RightKnee
		{
			OFFSET 0.000000 -0.002666 -40.478676
			CHANNELS 3 Xrotation Yrotation Zrotation
			JOINT RightAnkle
			{
				OFFSET 0.000000 -0.049110 -35.224068
				CHANNELS 3 Xrotation Yrotation Zrotation
				JOINT RightToe
				{
					OFFSET 0.000000 -12.539530 -6.151390
					CHANNELS 3 Xrotation Yrotation Zrotation
					End Site
					{
						OFFSET 0.000000 -5.044995 -1.291870
					}
				}
			}
		}
	}
	JOINT LeftHip
	{
		OFFSET 9.469263 -0.004642 0.045487
		CHANNELS 3 Xrotation Yrotation Zrotation
		JOINT LeftKnee
		{
			OFFSET 0.000000 -0.002666 -40.478676
			CHANNELS 3 Xrotation Yrotation Zrotation
			JOINT LeftAnkle
			{
				OFFSET 0.000000 -0.049110 -35.224068
				CHANNELS 3 Xrotation Yrotation Zrotation
				JOINT LeftToe
				{
					OFFSET 0.000000 -12.539530 -6.151390
					CHANNELS 3 Xrotation Yrotation Zrotation
					End Site
					{
						OFFSET 0.000000 -5.044995 -1.291870
					}
				}
			}
		}
	}
}
MOTION
Frames: 8
Frame Time: 0.016667
6.656006 -20.775980 82.709473 2.738946 7.909465 -110.116269 7.368846 1.442508 -0.367647 3.245602 0.367036 0.357224 3.245602 0.367036 0.357232 2.434407 0.273390 0.269883 24.301687 -1.012656 -1.474941 8.935820 -1.491487 -2.953583 -6.828982 -9.066482 -0.086919 9.227502 -42.581004 -8.608041 70.147825 13.480405 61.705145 -54.270255 34.205598 82.238565 -5.688222 9.201613 -0.644461 4.348360 38.309507 7.330725 73.214888 11.383416 -63.103790 -22.749192 -28.738434 -82.822512 6.408537 -5.604273 -7.428369 5.331839 -3.165302 -5.722973 -4.885556 2.699628 7.742872 0.345978 0.522093 -0.014270 2.490945 3.091679 -1.236141 15.388414 3.351241 20.486647 -7.880401 -3.924385 -0.314055 -1.122974 1.056299 0.163933 
6.656006 -20.775980 82.709473 2.738946 7.909465 -110.116269 7.368846 1.442508 -0.367647 3.245602 0.367036 0.357224 3.245602 0.367036 0.357232 2.434407 0.273390 0.269883 24.301687 -1.012656 -1.474941 8.935820 -1.491487 -2.953583 -6.828982 -9.066482 -0.086919 9.227502 -42.581004 -8.608041 70.147825 13.480405 61.705145 -54.270255 34.205598 82.238565 -5.688222 9.201613 -0.644461 4.348360 38.309507 7.330725 73.214888 11.383416 -63.103790 -22.749192 -28.738434 -82.822512 6.408537 -5.604273 -7.428369 5.331839 -3.165302 -5.722973 -4.885556 2.699628 7.742872 0.345978 0.522093 -0.014270 2.490945 3.091679 -1.236141 15.388414 3.351241 20.486647 -7.880401 -3.924385 -0.314055 -1.122974 1.056299 0.163933 
6.986498 -20.815212 82.741959 2.482167 7.514294 -109.088223 6.969920 1.480371 -1.290507 3.269114 0.332739 0.348482 3.269114 0.332740 0.348487 2.452018 0.247699 0.263153 24.304378 -1.018531 -1.493062 8.940751 -1.497834 -2.988223 -6.869317 -9.093401 -0.090941 9.271703 -42.492287 -8.645463 70.053494 13.444275 61.856044 -54.327400 34.267520 82.280652 -5.642027 9.198120 -0.648543 4.354973 38.304715 7.197109 73.212402 11.285520 -63.094637 -22.702835 -28.768928 -82.835155 5.599046 -5.593154 -8.639920 5.667498 -3.280671 -5.564832 -5.012086 2.837973 7.629618 0.330537 0.405974 0.152950 0.418364 3.226668 -2.986482 17.824014 3.200322 21.137530 -7.225551 -3.754758 -0.741712 -1.717950 1.134410 0.608775 
7.287540 -20.822243 82.809700 2.248842 7.236402 -108.239094 6.691850 1.571827 -2.073234 3.300873 0.302729 0.337086 3.300872 0.302729 0.337086 2.475819 0.225234 0.254452 24.293555 -1.029426 -1.500489 8.920407 -1.515736 -3.004679 -6.874571 -9.106495 -0.095581 9.269260 -42.443612 -8.668124 69.944088 13.472141 61.971044 -54.363450 34.313252 82.310200 -5.594251 9.196083 -0.652848 4.411902 38.292260 7.047331 73.175949 11.207298 -63.118263 -22.681089 -28.823115 -82.849191 4.940473 -5.548329 -9.522190 5.970273 -3.409817 -5.406701 -5.061057 3.009818 7.445574 0.260126 0.307848 0.274104 -1.660731 3.472219 -4.606915 20.469816 3.028184 21.950071 -6.036696 -3.639462 -1.368907 -4.136880 1.854530 1.101746 
7.555591 -20.795544 82.902168 2.080878 7.102239 -107.657353 6.571342 1.693868 -2.632416 3.340796 0.274763 0.330562 3.340797 0.274763 0.330563 2.505741 0.204272 0.249431 24.274996 -1.043629 -1.502470 8.885579 -1.540870 -3.012072 -6.878433 -9.111162 -0.101490 9.213517 -42.417199 -8.700799 69.847891 13.527593 62.061489 -54.388103 34.349035 82.346502 -5.557761 9.181218 -0.659956 4.513463 38.298985 6.880279 73.097873 11.136529 -63.145611 -22.675613 -28.896212 -82.849320 4.471793 -5.498706 -9.929427 6.244140 -3.563924 -5.439240 -5.080165 3.192096 7.119114 0.163699 0.226983 0.387381 -3.643218 3.746552 -6.002777 23.177880 2.977500 22.830712 -4.341261 -3.875022 -1.956230 -7.000920 2.806324 1.506853 
7.816797 -20.741673 83.003487 1.971335 6.998735 -107.205939 6.502294 1.794760 -3.109006 3.377526 0.248570 0.329224 3.377526 0.248570 0.329226 2.533274 0.184614 0.248305 24.264073 -1.052632 -1.497106 8.865093 -1.558462 -3.004644 -6.907722 -9.121170 -0.088761 9.183125 -42.385203 -8.739367 69.755049 13.598229 62.136519 -54.449612 34.389955 82.406560 -5.531561 9.164180 -0.669968 4.598980 38.327494 6.759269 72.995652 11.080357 -63.164121 -22.654971 -28.969680 -82.839963 4.067884 -5.480351 -10.162423 6.500432 -3.721494 -5.715250 -5.073645 3.279559 7.075241 0.052827 0.215150 0.482512 -5.570119 4.005727 -7.251561 25.764124 3.031264 23.541801 -2.222184 -4.559750 -2.320096 -10.138744 4.022591 1.891928 
8.078020 -20.697586 83.025146 1.793541 6.888687 -106.733706 6.401155 1.966698 -3.649598 3.407092 0.228668 0.333277 3.407092 0.228669 0.333284 2.555443 0.169649 0.251246 24.278094 -1.058023 -1.482420 8.890943 -1.572270 -2.978866 -6.931901 -9.144892 -0.090217 9.221889 -42.340565 -8.714498 69.660963 13.617980 62.207539 -54.517487 34.427961 82.464098 -5.519032 9.149160 -0.683194 4.618382 38.361686 6.724632 72.904975 11.035028 -63.165904 -22.618636 -29.016279 -82.836630 3.644122 -5.375848 -10.608763 6.744920 -3.859014 -6.025810 -4.950403 3.245721 7.304442 -0.154590 0.275917 0.554960 -7.415618 4.413586 -8.323281 28.011149 2.980355 23.902116 0.069970 -5.728184 -2.588135 -13.182562 5.531094 2.416561 
8.179051 -20.583055 83.039101 1.964360 7.203373 -106.943981 6.761121 2.002540 -3.580270 3.434155 0.220185 0.341635 3.434155 0.220185 0.341631 2.575739 0.163225 0.257477 24.317092 -1.059288 -1.460754 8.963303 -1.580758 -2.938923 -6.982190 -9.179985 -0.112019 9.329276 -42.287217 -8.633207 69.596609 13.596385 62.266859 -54.616969 34.472077 82.538697 -5.534369 9.146162 -0.680903 4.562635 38.377778 6.770230 72.845525 10.986015 -63.166061 -22.583546 -29.026521 -82.847217 3.871099 -5.423500 -10.656784 6.931991 -3.972064 -6.104313 -4.792421 3.088927 7.641335 -0.387994 0.412756 0.512219 -8.653242 4.582691 -8.484667 29.803524 2.729279 23.765008 2.295180 -7.335121 -2.440400 -15.800499 7.366041 2.815008 
